PathFileType  4	(X/Y/Z) C:\Users\wagnerel85475\Documents\Thesis\opencap-core\Data\3375ffbc-daeb-4a43-b4f7-ac9899cd4c71\MarkerData\PreAugmentation
DataRate	CameraRate	NumFrames	NumMarkers	Units	OrigDataRate	OrigDataStartFrame	OrigNumFrames
60.0	60.0	15	20	m	60.0	561	640
Frame#	Time	Neck			RShoulder			RElbow			RWrist			LShoulder			LElbow			LWrist			midHip			RHip			RKnee			RAnkle			LHip			LKnee			LAnkle			LBigToe			LSmallToe			LHeel			RBigToe			RSmallToe			RHeel			
		X1	Y1	Z1	X2	Y2	Z2	X3	Y3	Z3	X4	Y4	Z4	X5	Y5	Z5	X6	Y6	Z6	X7	Y7	Z7	X8	Y8	Z8	X9	Y9	Z9	X10	Y10	Z10	X11	Y11	Z11	X12	Y12	Z12	X13	Y13	Z13	X14	Y14	Z14	X15	Y15	Z15	X16	Y16	Z16	X17	Y17	Z17	X18	Y18	Z18	X19	Y19	Z19	X20	Y20	Z20	

561	9.3333333	0.5897400	1.3676100	-0.1087400	0.5771700	1.3713500	0.0672400	0.7287700	1.1927500	0.1459800	1.0728500	1.1787300	0.0506100	0.6018900	1.3593600	-0.3010500	0.8837300	1.1527700	-0.3372000	1.1272200	1.1731700	-0.1775400	0.6733000	0.8147400	-0.0828300	0.6720800	0.8208100	0.0347400	0.5807400	0.3247300	0.0358300	0.5297000	-0.1810500	0.0854000	0.6862300	0.8077500	-0.2076700	0.5962300	0.3331200	-0.2058200	0.5580400	-0.1772900	-0.2672000	0.7702500	-0.2250700	-0.3229000	0.7267100	-0.2326100	-0.3478400	0.4923800	-0.2290800	-0.2608900	0.6920800	-0.2436600	0.2039900	0.6625000	-0.2367400	0.2197000	0.5043800	-0.2193000	0.0638100
562	9.3500000	0.5894700	1.3673200	-0.1089100	0.5769500	1.3713700	0.0673400	0.7347000	1.1874900	0.1482200	1.0778100	1.1765700	0.0531500	0.5959400	1.3597200	-0.2984700	0.8782100	1.1509500	-0.3393400	1.1261300	1.1717600	-0.1778900	0.6723400	0.8142900	-0.0826000	0.6764600	0.8209300	0.0324700	0.5808800	0.3229500	0.0362100	0.5298900	-0.1811400	0.0854900	0.6861300	0.8055800	-0.2077200	0.5904700	0.3293800	-0.2080700	0.5580300	-0.1751800	-0.2670200	0.7698900	-0.2252300	-0.3229500	0.7206200	-0.2329200	-0.3503500	0.4926900	-0.2290300	-0.2607500	0.6918700	-0.2437000	0.2043200	0.6632400	-0.2367100	0.2195100	0.5037800	-0.2210000	0.0642200
563	9.3666667	0.5897600	1.3676200	-0.1087200	0.5771600	1.3712900	0.0672400	0.7342000	1.1899000	0.1478500	1.0778200	1.1767400	0.0524700	0.6021000	1.3569600	-0.3010100	0.8836600	1.1509700	-0.3371800	1.1270800	1.1716000	-0.1775200	0.6735000	0.8150300	-0.0826300	0.6721000	0.8189400	0.0348400	0.5805000	0.3227000	0.0361200	0.5297200	-0.1811100	0.0854000	0.6862800	0.8077700	-0.2074500	0.5969800	0.3312900	-0.2056400	0.5581200	-0.1750800	-0.2668900	0.7702600	-0.2250700	-0.3228800	0.7221900	-0.2324500	-0.3497200	0.4923600	-0.2290400	-0.2608900	0.6921300	-0.2436900	0.2039800	0.6626300	-0.2369000	0.2196700	0.5038900	-0.2210400	0.0642200
564	9.3833333	0.5895200	1.3673400	-0.1089100	0.5769800	1.3713100	0.0673500	0.7344100	1.1889400	0.1482200	1.0776800	1.1786700	0.0531700	0.6013600	1.3595900	-0.3007300	0.8781700	1.1491400	-0.3393600	1.1177400	1.1714900	-0.1778100	0.6669500	0.8116800	-0.0845900	0.6716100	0.8184900	0.0350700	0.5808600	0.3229100	0.0361800	0.5298900	-0.1811400	0.0854900	0.6861600	0.8055200	-0.2077400	0.5910600	0.3275400	-0.2078700	0.5580400	-0.1752000	-0.2670200	0.7698900	-0.2251900	-0.3229500	0.7206300	-0.2329300	-0.3503600	0.4926800	-0.2290100	-0.2607500	0.6965500	-0.2419500	0.2017100	0.6632500	-0.2367100	0.2195100	0.5037700	-0.2210000	0.0642300
565	9.4000000	0.5897800	1.3676400	-0.1087200	0.5822200	1.3711600	0.0646400	0.7291100	1.1899700	0.1460300	1.0815000	1.1809500	0.0501600	0.5965400	1.3613100	-0.2987600	0.8789800	1.1488100	-0.3394600	1.1106800	1.1725100	-0.1731700	0.6678100	0.8141600	-0.0849200	0.6768900	0.8213700	0.0322200	0.5866600	0.3298300	0.0327100	0.5293200	-0.1831800	0.0857800	0.6862500	0.8056700	-0.2075500	0.5911800	0.3274400	-0.2079500	0.5581200	-0.1751200	-0.2668900	0.7702300	-0.2249400	-0.3229100	0.7218400	-0.2342900	-0.3500800	0.4930200	-0.2313600	-0.2605100	0.6922200	-0.2439100	0.2039700	0.6627000	-0.2371600	0.2196700	0.4986100	-0.2228700	0.0668400
566	9.4166667	0.5895300	1.3673600	-0.1089200	0.5820000	1.3712600	0.0647600	0.7292900	1.1900400	0.1463700	1.0766500	1.1808200	0.0490100	0.5959100	1.3597200	-0.2984400	0.8781800	1.1489100	-0.3393600	1.1136900	1.1690900	-0.1757500	0.6669100	0.8116700	-0.0845600	0.6764300	0.8209400	0.0324700	0.5880900	0.3384700	0.0322500	0.5294800	-0.1831600	0.0858700	0.6861800	0.8055500	-0.2077100	0.5905800	0.3249900	-0.2080300	0.5579400	-0.1774000	-0.2673300	0.7699100	-0.2251300	-0.3229600	0.7251300	-0.2330300	-0.3484700	0.4878800	-0.2331800	-0.2626100	0.6966500	-0.2420700	0.2017000	0.6633000	-0.2368600	0.2195100	0.4984600	-0.2227900	0.0668500
567	9.4333333	0.5896800	1.3658600	-0.1087400	0.5821600	1.3712200	0.0646400	0.7291000	1.1914100	0.1459700	1.0720300	1.1807900	0.0465100	0.5964900	1.3594200	-0.2987900	0.8743100	1.1486200	-0.3417800	1.1023300	1.1697900	-0.1731300	0.6733000	0.8146600	-0.0828200	0.6777300	0.8213600	0.0366800	0.5878100	0.3339800	0.0321700	0.5293000	-0.1831200	0.0857700	0.6862400	0.8056200	-0.2075500	0.5902600	0.3224900	-0.2083000	0.5580000	-0.1773000	-0.2672200	0.7702600	-0.2249700	-0.3228900	0.7218300	-0.2342600	-0.3500600	0.4875500	-0.2332200	-0.2627400	0.6968900	-0.2420600	0.2013500	0.6626900	-0.2370600	0.2196700	0.4985900	-0.2228200	0.0668300
568	9.4500000	0.5947000	1.3673000	-0.1113400	0.5820300	1.3712600	0.0647600	0.7295300	1.1936700	0.1462300	1.0718400	1.1807400	0.0471300	0.6013300	1.3596100	-0.3007100	0.8830100	1.1491600	-0.3370600	1.1052700	1.1701100	-0.1756700	0.6667800	0.8136200	-0.0846600	0.6772700	0.8210100	0.0369300	0.5889200	0.3359900	0.0319100	0.5294600	-0.1831700	0.0858700	0.6861700	0.8055700	-0.2077100	0.5963700	0.3285500	-0.2056700	0.5579400	-0.1774100	-0.2673400	0.7746300	-0.2234000	-0.3208000	0.7251400	-0.2330200	-0.3484700	0.4878700	-0.2331400	-0.2626200	0.6966300	-0.2420800	0.2017000	0.6632800	-0.2368500	0.2195100	0.4984700	-0.2228100	0.0668500
569	9.4666667	0.5897000	1.3658800	-0.1087400	0.5821700	1.3711800	0.0646500	0.7290300	1.1917400	0.1459500	1.0766900	1.1793000	0.0483600	0.5965000	1.3594000	-0.2988000	0.8789800	1.1488300	-0.3395100	1.1104300	1.1686100	-0.1774000	0.6677900	0.8099400	-0.0849200	0.6720300	0.8207300	0.0347300	0.5867200	0.3297700	0.0326800	0.5288800	-0.1808900	0.0861400	0.6809200	0.8030100	-0.2098800	0.5852300	0.3238800	-0.2057900	0.5579900	-0.1773100	-0.2672200	0.7749800	-0.2232300	-0.3207300	0.7266700	-0.2325300	-0.3478500	0.4870400	-0.2352600	-0.2630700	0.6968700	-0.2420700	0.2013500	0.6565700	-0.2370000	0.2184400	0.4985900	-0.2228200	0.0668300
570	9.4833333	0.5946400	1.3655200	-0.1113600	0.5820400	1.3712200	0.0647600	0.7293100	1.1898700	0.1463600	1.0765200	1.1791300	0.0490200	0.5959000	1.3596600	-0.2984400	0.8831200	1.1474400	-0.3326000	1.1219200	1.1692800	-0.1800600	0.6668300	0.8117600	-0.0845800	0.6715900	0.8185200	0.0350600	0.5870400	0.3301500	0.0327600	0.5294400	-0.1831600	0.0858700	0.6809400	0.8029200	-0.2100300	0.5856500	0.3261400	-0.2055100	0.5579400	-0.1773700	-0.2673200	0.7749800	-0.2214200	-0.3204400	0.7255300	-0.2311400	-0.3481100	0.4878800	-0.2332000	-0.2626300	0.6966200	-0.2420300	0.2017000	0.6571600	-0.2367900	0.2182900	0.4980500	-0.2245200	0.0672600
571	9.5000000	0.5948800	1.3657800	-0.1111500	0.5881400	1.3709800	0.0665600	0.7288300	1.1888700	0.1460300	1.0680500	1.1790400	0.0488300	0.5964600	1.3594100	-0.2987800	0.8885000	1.1473700	-0.3304500	1.1229900	1.1690600	-0.1796500	0.6678700	0.8122500	-0.0848500	0.6768700	0.8194200	0.0323100	0.5867300	0.3299200	0.0326900	0.5292700	-0.1831100	0.0857700	0.6808900	0.8050800	-0.2097900	0.5911800	0.3274400	-0.2079700	0.5579700	-0.1772800	-0.2672100	0.7753300	-0.2212900	-0.3203700	0.7270400	-0.2306600	-0.3474900	0.4875000	-0.2331700	-0.2627500	0.6921600	-0.2438100	0.2039700	0.6565500	-0.2370000	0.2184500	0.4982000	-0.2245600	0.0672200
572	9.5166667	0.5947400	1.3672700	-0.1113600	0.5820500	1.3711400	0.0647500	0.7390400	1.1903100	0.1456200	1.0718800	1.1769600	0.0471300	0.5959200	1.3596700	-0.2984500	0.8878700	1.1439900	-0.3301900	1.1258000	1.1642600	-0.1821400	0.6668200	0.8118100	-0.0846000	0.6764200	0.8190700	0.0325600	0.5870700	0.3300600	0.0327400	0.5294200	-0.1831500	0.0858700	0.6809100	0.8050000	-0.2099400	0.5910500	0.3274100	-0.2078600	0.5579600	-0.1773600	-0.2673200	0.7750000	-0.2214900	-0.3204400	0.7255400	-0.2311900	-0.3481200	0.4878800	-0.2331200	-0.2626300	0.6919400	-0.2438200	0.2043200	0.6571500	-0.2368100	0.2183000	0.4980400	-0.2245200	0.0672600
573	9.5333333	0.5948900	1.3658000	-0.1111700	0.5822400	1.3710700	0.0646000	0.7502300	1.1860800	0.1489900	1.0819900	1.1729400	0.0501400	0.5964900	1.3594100	-0.2988000	0.8789600	1.1430500	-0.3350300	1.1231000	1.1638200	-0.1795700	0.6679300	0.8121700	-0.0848600	0.6711900	0.8188100	0.0303400	0.5861500	0.3322500	0.0329600	0.5292700	-0.1830600	0.0857700	0.6861900	0.8076600	-0.2075000	0.5970100	0.3313600	-0.2056700	0.5580700	-0.1750700	-0.2669000	0.7704300	-0.2229100	-0.3225900	0.7171700	-0.2339800	-0.3519900	0.4931100	-0.2314300	-0.2604800	0.6968700	-0.2421400	0.2013500	0.6565900	-0.2371200	0.2184300	0.4985900	-0.2228200	0.0668200
574	9.5500000	0.5947200	1.3672700	-0.1113600	0.5820400	1.3711100	0.0647500	0.7615600	1.1809200	0.1529800	1.0732200	1.1706700	0.0512400	0.5959200	1.3596500	-0.2984300	0.8831600	1.1415800	-0.3324800	1.1218800	1.1640800	-0.1799500	0.6668500	0.8116900	-0.0845900	0.6707800	0.8185000	0.0305800	0.5865100	0.3326200	0.0330300	0.5294200	-0.1830700	0.0858700	0.6862300	0.8075900	-0.2076300	0.5969400	0.3310400	-0.2055100	0.5582300	-0.1729400	-0.2667000	0.7699100	-0.2251500	-0.3229800	0.7206100	-0.2328900	-0.3503800	0.4940600	-0.2294500	-0.2600500	0.6966400	-0.2421100	0.2016900	0.6572000	-0.2369500	0.2182800	0.4984500	-0.2227800	0.0668700
575	9.5666667	0.5949500	1.3675400	-0.1111500	0.5822200	1.3710400	0.0645800	0.7566200	1.1814600	0.1552400	1.0778000	1.1692600	0.0525400	0.5963400	1.3617600	-0.2988500	0.8742900	1.1430600	-0.3373300	1.1228400	1.1621800	-0.1795500	0.6680000	0.8143300	-0.0847700	0.6711800	0.8187500	0.0303300	0.5861700	0.3323300	0.0329600	0.5292700	-0.1830300	0.0857700	0.6809200	0.8070600	-0.2097200	0.5970700	0.3313000	-0.2056800	0.5582200	-0.1728900	-0.2666000	0.7704900	-0.2229500	-0.3225600	0.7172600	-0.2340900	-0.3519700	0.4936800	-0.2295000	-0.2601600	0.6968500	-0.2421100	0.2013400	0.6566000	-0.2371300	0.2184300	0.4986400	-0.2228600	0.0668100
